<svg width="625" height="668" viewBox="0 0 625 668" fill="none" xmlns="http://www.w3.org/2000/svg">
<path d="M45 238C45 106.556 151.556 0 283 0C414.444 0 521 106.556 521 238V668H45V238Z" fill="url(#paint0_linear_346_2)" fill-opacity="0.78"/>
<circle cx="100" cy="602" r="50" fill="url(#paint1_linear_346_2)"/>
<path d="M521 306H533C583.81 306 625 347.19 625 398C625 448.81 583.81 490 533 490H521V306Z" fill="url(#paint2_linear_346_2)"/>
<path d="M390.963 612.708H230.431C206.353 612.708 186.764 593.119 186.764 569.041V144.667C186.764 120.589 206.353 101 230.431 101H390.963C415.04 101 434.629 120.589 434.629 144.667C437.618 315.082 442.714 505.921 434.629 569.041C434.629 593.119 415.04 612.708 390.963 612.708Z" fill="#3F3D56"/>
<path d="M436.868 257.099C435.849 257.099 435.021 257.927 435.021 258.946V318.06C435.021 319.079 435.849 319.908 436.868 319.908C437.887 319.908 438.715 319.079 438.715 318.06V258.946C438.715 257.927 437.887 257.099 436.868 257.099Z" fill="#3F3D56"/>
<path d="M430.473 144.667V569.033C430.473 589.991 414.162 607.134 393.536 608.465H393.527C393.222 608.483 392.917 608.502 392.603 608.511C392.058 608.538 391.513 608.548 390.959 608.548C390.959 608.548 388.927 608.4 385.214 608.123C381.464 607.846 376.005 607.43 369.198 606.885C367.157 606.728 365.004 606.553 362.732 606.368C358.206 605.998 353.237 605.592 347.907 605.13C345.783 604.955 343.585 604.761 341.34 604.567C329.868 603.578 317.02 602.424 303.47 601.112C301.179 600.9 298.87 600.678 296.543 600.447C295.933 600.383 190.921 573.984 190.921 569.034V144.667C190.921 122.841 208.609 105.153 230.435 105.153H254.025C257.794 105.153 260.823 108.09 261.147 111.85C261.174 112.099 261.202 112.348 261.248 112.598C261.932 116.376 265.395 119.008 269.238 119.008H352.156C355.999 119.008 359.462 116.376 360.146 112.598C360.192 112.348 360.22 112.099 360.248 111.85C360.571 108.09 363.6 105.153 367.369 105.153H390.959C412.785 105.153 430.473 122.841 430.473 144.667Z" fill="white"/>
<path d="M185.84 212.763C184.821 212.763 183.993 213.591 183.993 214.61V229.389C183.993 230.408 184.821 231.236 185.84 231.236C186.859 231.236 187.688 230.408 187.688 229.389V214.61C187.688 213.591 186.859 212.763 185.84 212.763Z" fill="#3F3D56"/>
<path d="M185.84 257.099C184.821 257.099 183.993 257.927 183.993 258.946V287.579C183.993 288.598 184.821 289.427 185.84 289.427C186.859 289.427 187.688 288.598 187.688 287.579V258.946C187.688 257.927 186.859 257.099 185.84 257.099Z" fill="#3F3D56"/>
<path d="M185.84 297.74C184.821 297.74 183.993 298.568 183.993 299.587V328.221C183.993 329.239 184.821 330.068 185.84 330.068C186.859 330.068 187.688 329.239 187.688 328.221V299.587C187.688 298.568 186.859 297.74 185.84 297.74Z" fill="#3F3D56"/>
<path d="M253.419 111.622H218.017C217.846 111.622 217.707 111.761 217.707 111.933V115.93C217.707 116.102 217.846 116.241 218.017 116.241H253.419C253.59 116.241 253.729 116.102 253.729 115.93V111.933C253.729 111.761 253.59 111.622 253.419 111.622Z" fill="#E6E6E6"/>
<path d="M373.206 116.241C375.247 116.241 376.901 114.586 376.901 112.546C376.901 110.505 375.247 108.851 373.206 108.851C371.166 108.851 369.512 110.505 369.512 112.546C369.512 114.586 371.166 116.241 373.206 116.241Z" fill="#E6E6E6"/>
<path d="M383.367 116.241C385.407 116.241 387.061 114.586 387.061 112.546C387.061 110.505 385.407 108.851 383.367 108.851C381.326 108.851 379.672 110.505 379.672 112.546C379.672 114.586 381.326 116.241 383.367 116.241Z" fill="#E6E6E6"/>
<path d="M393.527 116.241C395.567 116.241 397.221 114.586 397.221 112.546C397.221 110.505 395.567 108.851 393.527 108.851C391.486 108.851 389.832 110.505 389.832 112.546C389.832 114.586 391.486 116.241 393.527 116.241Z" fill="#E6E6E6"/>
<path d="M189.393 604.982L178.134 604.981L172.778 561.552L189.395 561.553L189.393 604.982Z" fill="#FFB6B6"/>
<path d="M150.818 604.726C150.467 605.317 150.282 607.222 150.282 607.909C150.282 610.02 151.993 611.73 154.104 611.73H188.972C190.412 611.73 191.579 610.563 191.579 609.123V607.672C191.579 607.672 193.304 603.309 189.753 597.931C189.753 597.931 185.339 602.142 178.744 595.547L176.799 592.023L162.72 602.319L154.917 603.28C153.21 603.49 151.696 603.247 150.818 604.726Z" fill="#2F2E41"/>
<path d="M127.128 544.661L115.869 544.624L110.651 501.178L127.268 501.232L127.128 544.661Z" fill="#FFB6B6"/>
<path d="M88.5537 544.283C88.2013 544.872 88.0102 546.777 88.0081 547.464C88.0014 549.574 89.7068 551.291 91.8173 551.297L126.686 551.408C128.125 551.413 129.296 550.249 129.301 548.809L129.305 547.358C129.305 547.358 131.044 543 127.51 537.611C127.51 537.611 123.083 541.808 116.509 535.192L114.575 531.662L100.464 541.914L92.6574 542.85C90.9496 543.054 89.4366 542.807 88.5537 544.283Z" fill="#2F2E41"/>
<path d="M172.972 341.33L158.953 342.331C158.953 342.331 111.492 369.315 107.486 375.324C103.481 381.332 97.9734 389.844 102.98 398.856C107.987 407.868 104.176 516.991 104.176 516.991L128.102 511.578L143.431 397.407L175.475 392.9C175.475 392.9 186.49 416.665 182.485 436.326C178.479 455.987 176.477 468.003 176.477 468.003L171.47 584.163L190.997 583.662L208.521 476.014L238.562 390.898L199.508 344.834L172.972 341.33Z" fill="#2F2E41"/>
<path d="M242.067 218.161L213.027 221.165L210.023 231.179L181.984 246.199L190.997 309.286L183.987 320.301L186.991 331.316C186.991 331.316 178.98 332.317 179.981 338.326L161.957 341.33C161.957 341.33 185.863 346.21 190.933 370.306C196.003 394.402 238.061 397.407 238.061 397.407L271.106 294.265L274.111 233.181L251.079 227.173L242.067 218.161Z" fill="#E6E6E6"/>
<path d="M226.762 214.361C239.23 214.361 249.337 204.254 249.337 191.786C249.337 179.318 239.23 169.211 226.762 169.211C214.294 169.211 204.187 179.318 204.187 191.786C204.187 204.254 214.294 214.361 226.762 214.361Z" fill="#FFB6B6"/>
<path d="M215.029 212.152C215.029 212.152 195.002 211.151 197.005 195.129C192.048 178.067 196.435 166.989 212.025 163.085C212.025 163.085 216.031 162.084 217.032 162.084C230.203 162.084 237.06 166.089 237.06 166.089C237.06 166.089 236.058 162.123 237.06 163.105C238.061 164.086 239.062 166.089 239.062 166.089C239.062 166.089 249.076 171.096 249.076 181.11C249.076 191.124 249.076 187.118 249.076 187.118C249.076 187.118 247.073 187.118 245.071 181.11C243.068 175.102 230.101 179.107 230.101 179.107L231.051 181.11L228.047 180.108L225.043 183.113L223.04 182.111C223.04 182.111 215.029 182.111 216.031 182.111C217.032 182.111 216.334 188.916 216.334 188.916L209.021 197.132L217.032 212.152H215.029Z" fill="#2F2E41"/>
<path d="M108.329 331.67C102.628 334.782 99.6111 340.245 101.591 343.873C103.571 347.501 109.798 347.92 115.499 344.809C117.995 343.447 119.976 341.634 121.249 339.722L145.241 326.234L138.672 315.11L115.717 329.587C113.421 329.623 110.824 330.308 108.329 331.67Z" fill="#FFB6B6"/>
<path d="M189.238 246.667C189.238 246.667 179.833 243.086 176.593 247.396C173.352 251.706 151.946 304.009 151.946 304.009L120.539 320.411L129.371 335.791L169.814 322.326L196.497 273.526L189.238 246.667Z" fill="#E6E6E6"/>
<path d="M485.816 418.434V524.579C485.816 533.966 478.179 541.602 468.792 541.602H206.433C197.046 541.602 189.409 533.966 189.409 524.579V418.434C189.409 409.047 197.046 401.41 206.433 401.41H468.792C478.179 401.41 485.816 409.047 485.816 418.434Z" fill="white"/>
<path d="M485.816 418.434V524.579C485.816 533.966 478.179 541.602 468.792 541.602H206.433C197.046 541.602 189.409 533.966 189.409 524.579V418.434C189.409 409.047 197.046 401.41 206.433 401.41H468.792C478.179 401.41 485.816 409.047 485.816 418.434ZM468.792 539.6C477.088 539.6 483.813 532.875 483.813 524.579V471.065C483.813 433.702 453.524 403.413 416.161 403.413H206.433C198.137 403.413 191.412 410.138 191.412 418.433V524.579C191.412 532.875 198.137 539.6 206.433 539.6H468.792Z" fill="#3F3D56"/>
<path d="M307.181 465.54H272.914C272.05 465.54 271.347 466.242 271.347 467.106C271.347 467.97 272.05 468.673 272.914 468.673H307.181C308.045 468.673 308.748 467.97 308.748 467.106C308.748 466.242 308.045 465.54 307.181 465.54Z" fill="#ACB6E5"/>
<path d="M359.253 465.54H324.985C324.121 465.54 323.418 466.242 323.418 467.106C323.418 467.97 324.121 468.673 324.985 468.673H359.253C360.117 468.673 360.819 467.97 360.819 467.106C360.819 466.242 360.117 465.54 359.253 465.54Z" fill="#ACB6E5"/>
<path d="M307.181 482.669H272.914C272.05 482.669 271.347 483.372 271.347 484.236C271.347 485.1 272.05 485.803 272.914 485.803H307.181C308.045 485.803 308.748 485.1 308.748 484.236C308.748 483.372 308.045 482.669 307.181 482.669Z" fill="#ACB6E5"/>
<path d="M359.253 482.669H324.985C324.121 482.669 323.418 483.372 323.418 484.236C323.418 485.1 324.121 485.803 324.985 485.803H359.253C360.117 485.803 360.819 485.1 360.819 484.236C360.819 483.372 360.117 482.669 359.253 482.669Z" fill="#ACB6E5"/>
<path d="M412.891 484.236C412.891 483.372 412.188 482.669 411.324 482.669H377.056C376.192 482.669 375.49 483.372 375.49 484.236C375.49 485.1 376.192 485.803 377.056 485.803H411.324C412.188 485.803 412.891 485.1 412.891 484.236Z" fill="#ACB6E5"/>
<path d="M287.154 451.862C288.018 451.862 288.72 451.159 288.72 450.295C288.72 449.431 288.018 448.729 287.154 448.729H252.886C252.022 448.729 251.319 449.431 251.319 450.295C251.319 451.159 252.022 451.862 252.886 451.862H287.154Z" fill="#ACB6E5"/>
<path d="M388.071 451.225H422.339C423.203 451.225 423.906 450.522 423.906 449.658C423.906 448.794 423.203 448.091 422.339 448.091H388.071C387.208 448.091 386.505 448.794 386.505 449.658C386.505 450.522 387.208 451.225 388.071 451.225Z" fill="#ACB6E5"/>
<path d="M301.59 451.554H372.634C373.498 451.554 374.201 450.851 374.201 449.987C374.201 449.124 373.498 448.421 372.634 448.421H301.59C300.726 448.421 300.023 449.124 300.023 449.987C300.023 450.851 300.726 451.554 301.59 451.554Z" fill="#ACB6E5"/>
<path d="M329.542 498.232H295.275C294.411 498.232 293.708 498.935 293.708 499.799C293.708 500.663 294.411 501.366 295.275 501.366H329.542C330.406 501.366 331.109 500.663 331.109 499.799C331.109 498.935 330.406 498.232 329.542 498.232Z" fill="#ACB6E5"/>
<path d="M440.215 417.633V523.779C440.215 533.166 432.579 540.802 423.192 540.802H317.046C307.659 540.802 300.023 533.166 300.023 523.779V417.633C300.023 408.246 307.659 400.61 317.046 400.61H423.192C432.579 400.61 440.215 408.246 440.215 417.633Z" fill="white"/>
<path d="M440.215 417.633V523.779C440.215 533.166 432.579 540.802 423.192 540.802H317.046C307.659 540.802 300.023 533.166 300.023 523.779V417.633C300.023 408.246 307.659 400.61 317.046 400.61H423.192C432.579 400.61 440.215 408.246 440.215 417.633ZM416.607 538.799C428.539 538.799 438.213 529.126 438.213 517.194V470.264C438.213 432.901 407.924 402.613 370.561 402.613H317.046C308.751 402.613 302.026 409.338 302.026 417.633V508.969C302.026 525.444 315.381 538.799 331.856 538.799L416.607 538.799Z" fill="#3F3D56"/>
<path d="M384.249 443.962H349.981C349.117 443.962 348.415 443.259 348.415 442.395C348.415 441.531 349.118 440.828 349.981 440.828H384.249C385.113 440.828 385.816 441.531 385.816 442.395C385.816 443.259 385.113 443.962 384.249 443.962Z" fill="#ACB6E5"/>
<path d="M384.249 477.371H349.981C349.117 477.371 348.415 476.668 348.415 475.804C348.415 474.94 349.118 474.238 349.981 474.238H384.249C385.113 474.238 385.816 474.94 385.816 475.804C385.816 476.668 385.113 477.371 384.249 477.371Z" fill="#ACB6E5"/>
<path d="M367.226 523.434H332.958C332.094 523.434 331.391 522.731 331.391 521.867C331.391 521.003 332.094 520.301 332.958 520.301H367.226C368.089 520.301 368.792 521.003 368.792 521.867C368.792 522.731 368.089 523.434 367.226 523.434Z" fill="#ACB6E5"/>
<path d="M402.637 460.677H331.593C330.729 460.677 330.026 459.974 330.026 459.11C330.026 458.246 330.729 457.544 331.593 457.544H402.637C403.501 457.544 404.204 458.246 404.204 459.11C404.204 459.974 403.501 460.677 402.637 460.677Z" fill="#ACB6E5"/>
<path d="M420.243 358.815C420.243 325.703 392.256 307.487 360.287 298.86C319.3 287.799 289.282 310.181 300.332 358.815C302.836 369.838 308.826 382.711 316.24 393.723H375.075C394.728 380.929 420.243 384.517 420.243 358.815Z" fill="#ACB6E5"/>
<path d="M359.407 421.411C362.754 415.031 366.997 410.428 371.672 406.924H316.566C330.749 427.184 349.558 440.186 359.407 421.411Z" fill="#ACB6E5"/>
<path d="M353.049 323.367C356.586 323.367 359.454 326.235 359.454 329.773V342.584H346.643V329.773C346.643 326.235 349.511 323.367 353.049 323.367ZM362.657 342.584V329.773C362.657 324.466 358.355 320.165 353.049 320.165C347.742 320.165 343.44 324.466 343.44 329.773V342.584C339.902 342.584 337.035 345.452 337.035 348.99V365.004C337.035 368.541 339.902 371.409 343.44 371.409H362.657C366.195 371.409 369.062 368.541 369.062 365.004V348.99C369.062 345.452 366.195 342.584 362.657 342.584ZM343.44 345.787H362.657C364.426 345.787 365.86 347.221 365.86 348.99V365.004C365.86 366.772 364.426 368.206 362.657 368.206H343.44C341.671 368.206 340.237 366.772 340.237 365.004V348.99C340.237 347.221 341.671 345.787 343.44 345.787Z" fill="white"/>
<path d="M261.509 397.951C260.737 404.4 263.438 410.026 267.541 410.517C271.645 411.009 275.598 406.18 276.371 399.731C276.709 396.908 276.381 394.243 275.562 392.097L278.492 364.73L265.62 363.628L264.098 390.724C262.795 392.615 261.847 395.128 261.509 397.951Z" fill="#FFB6B6"/>
<path d="M264.597 234.683C264.597 234.683 278.617 230.678 281.621 236.686C284.625 242.694 291.635 321.803 291.635 321.803L278.116 384.949L262.595 380.884L270.606 316.796L259.591 268.73L264.597 234.683Z" fill="#E6E6E6"/>
<defs>
<linearGradient id="paint0_linear_346_2" x1="45" y1="334" x2="521" y2="334" gradientUnits="userSpaceOnUse">
<stop stop-color="#ACB6E5"/>
<stop offset="1" stop-color="#86FDE8"/>
</linearGradient>
<linearGradient id="paint1_linear_346_2" x1="50" y1="602" x2="150" y2="602" gradientUnits="userSpaceOnUse">
<stop stop-color="#83A4D4"/>
<stop offset="1" stop-color="#B6FBFF"/>
</linearGradient>
<linearGradient id="paint2_linear_346_2" x1="521" y1="398" x2="625" y2="398" gradientUnits="userSpaceOnUse">
<stop stop-color="#83A4D4"/>
<stop offset="1" stop-color="#B6FBFF"/>
</linearGradient>
</defs>
</svg>
