<svg width="566" height="513" viewBox="0 0 566 513" fill="none" xmlns="http://www.w3.org/2000/svg">
<path d="M390.963 511.708H230.431C206.353 511.708 186.764 492.119 186.764 468.041V43.6668C186.764 19.589 206.353 0 230.431 0H390.963C415.04 0 434.629 19.589 434.629 43.6668C437.618 214.082 442.714 404.921 434.629 468.041C434.629 492.119 415.04 511.708 390.963 511.708Z" fill="#3F3D56"/>
<path d="M436.868 156.099C435.849 156.099 435.021 156.927 435.021 157.946V217.06C435.021 218.079 435.849 218.908 436.868 218.908C437.887 218.908 438.715 218.079 438.715 217.06V157.946C438.715 156.927 437.887 156.099 436.868 156.099Z" fill="#3F3D56"/>
<path d="M430.473 43.6672V468.033C430.473 488.991 414.162 506.134 393.536 507.464H393.527C393.222 507.483 392.917 507.501 392.603 507.511C392.058 507.538 391.513 507.548 390.959 507.548C390.959 507.548 388.927 507.4 385.214 507.123C381.464 506.846 376.005 506.43 369.198 505.885C367.157 505.728 365.004 505.553 362.732 505.368C358.206 504.998 353.237 504.592 347.907 504.13C345.783 503.955 343.585 503.761 341.34 503.567C329.868 502.578 317.02 501.424 303.47 500.112C301.179 499.9 298.87 499.678 296.543 499.447C295.933 499.382 190.921 472.984 190.921 468.033V43.6672C190.921 21.8411 208.609 4.15302 230.435 4.15302H254.025C257.794 4.15302 260.823 7.09024 261.147 10.8496C261.174 11.099 261.202 11.3483 261.248 11.5977C261.932 15.3755 265.395 18.0079 269.238 18.0079H352.156C355.999 18.0079 359.462 15.3755 360.146 11.5977C360.192 11.3483 360.22 11.099 360.248 10.8496C360.571 7.09025 363.6 4.15302 367.369 4.15302H390.959C412.785 4.15302 430.473 21.8411 430.473 43.6672Z" fill="white"/>
<path d="M185.84 111.763C184.821 111.763 183.993 112.591 183.993 113.61V128.389C183.993 129.408 184.821 130.236 185.84 130.236C186.859 130.236 187.688 129.408 187.688 128.389V113.61C187.688 112.591 186.859 111.763 185.84 111.763Z" fill="#3F3D56"/>
<path d="M185.84 156.099C184.821 156.099 183.993 156.927 183.993 157.946V186.579C183.993 187.598 184.821 188.427 185.84 188.427C186.859 188.427 187.688 187.598 187.688 186.579V157.946C187.688 156.927 186.859 156.099 185.84 156.099Z" fill="#3F3D56"/>
<path d="M185.84 196.74C184.821 196.74 183.993 197.568 183.993 198.587V227.22C183.993 228.239 184.821 229.068 185.84 229.068C186.859 229.068 187.688 228.239 187.688 227.22V198.587C187.688 197.568 186.859 196.74 185.84 196.74Z" fill="#3F3D56"/>
<path d="M253.419 10.6222H218.017C217.846 10.6222 217.707 10.7613 217.707 10.9329V14.9299C217.707 15.1014 217.846 15.2405 218.017 15.2405H253.419C253.59 15.2405 253.729 15.1014 253.729 14.9299V10.9329C253.729 10.7613 253.59 10.6222 253.419 10.6222Z" fill="#E6E6E6"/>
<path d="M373.206 15.2405C375.247 15.2405 376.901 13.5864 376.901 11.5459C376.901 9.5054 375.247 7.85126 373.206 7.85126C371.166 7.85126 369.512 9.5054 369.512 11.5459C369.512 13.5864 371.166 15.2405 373.206 15.2405Z" fill="#E6E6E6"/>
<path d="M383.367 15.2405C385.407 15.2405 387.061 13.5864 387.061 11.5459C387.061 9.5054 385.407 7.85126 383.367 7.85126C381.326 7.85126 379.672 9.5054 379.672 11.5459C379.672 13.5864 381.326 15.2405 383.367 15.2405Z" fill="#E6E6E6"/>
<path d="M393.527 15.2405C395.567 15.2405 397.221 13.5864 397.221 11.5459C397.221 9.5054 395.567 7.85126 393.527 7.85126C391.486 7.85126 389.832 9.5054 389.832 11.5459C389.832 13.5864 391.486 15.2405 393.527 15.2405Z" fill="#E6E6E6"/>
<path d="M189.393 503.982L178.134 503.981L172.778 460.552L189.395 460.553L189.393 503.982Z" fill="#FFB6B6"/>
<path d="M150.818 503.726C150.467 504.317 150.282 506.222 150.282 506.909C150.282 509.02 151.993 510.73 154.104 510.73H188.972C190.412 510.73 191.579 509.563 191.579 508.123V506.672C191.579 506.672 193.304 502.309 189.753 496.931C189.753 496.931 185.339 501.142 178.744 494.547L176.799 491.023L162.72 501.319L154.917 502.28C153.21 502.49 151.696 502.247 150.818 503.726Z" fill="#2F2E41"/>
<path d="M127.128 443.661L115.869 443.624L110.651 400.178L127.268 400.232L127.128 443.661Z" fill="#FFB6B6"/>
<path d="M88.5537 443.283C88.2013 443.872 88.0102 445.777 88.0081 446.464C88.0014 448.574 89.7068 450.291 91.8173 450.298L126.686 450.408C128.125 450.413 129.296 449.249 129.301 447.809L129.305 446.358C129.305 446.358 131.044 442 127.51 436.611C127.51 436.611 123.083 440.808 116.509 434.192L114.575 430.662L100.464 440.914L92.6574 441.85C90.9496 442.054 89.4366 441.807 88.5537 443.283Z" fill="#2F2E41"/>
<path d="M172.972 240.33L158.953 241.331C158.953 241.331 111.492 268.316 107.486 274.324C103.481 280.332 97.9733 288.844 102.98 297.856C107.987 306.868 104.176 415.991 104.176 415.991L128.102 410.579L143.431 296.407L175.475 291.9C175.475 291.9 186.49 315.665 182.485 335.326C178.479 354.987 176.477 367.003 176.477 367.003L171.47 483.163L190.996 482.662L208.521 375.014L238.562 289.898L199.508 243.835L172.972 240.33Z" fill="#2F2E41"/>
<path d="M242.067 117.161L213.027 120.165L210.023 130.179L181.984 145.199L190.997 208.286L183.987 219.301L186.991 230.316C186.991 230.316 178.98 231.317 179.981 237.326L161.957 240.33C161.957 240.33 185.863 245.21 190.933 269.306C196.003 293.403 238.061 296.407 238.061 296.407L271.106 193.265L274.111 132.181L251.079 126.173L242.067 117.161Z" fill="#E6E6E6"/>
<path d="M226.762 113.361C239.23 113.361 249.337 103.254 249.337 90.786C249.337 78.3182 239.23 68.211 226.762 68.211C214.294 68.211 204.187 78.3182 204.187 90.786C204.187 103.254 214.294 113.361 226.762 113.361Z" fill="#FFB6B6"/>
<path d="M215.029 111.152C215.029 111.152 195.002 110.151 197.005 94.1291C192.048 77.0675 196.435 65.9896 212.025 62.0852C212.025 62.0852 216.031 61.0838 217.032 61.0838C230.203 61.0838 237.06 65.0893 237.06 65.0893C237.06 65.0893 236.058 61.1232 237.06 62.1049C238.061 63.0866 239.062 65.0893 239.062 65.0893C239.062 65.0893 249.076 70.0962 249.076 80.1099C249.076 90.1236 249.076 86.1181 249.076 86.1181C249.076 86.1181 247.073 86.1181 245.071 80.1099C243.068 74.1017 230.101 78.1072 230.101 78.1072L231.051 80.1099L228.047 79.1085L225.043 82.1127L223.04 81.1113C223.04 81.1113 215.029 81.1113 216.031 81.1113C217.032 81.1113 216.334 87.9165 216.334 87.9165L209.021 96.1319L217.032 111.152H215.029Z" fill="#2F2E41"/>
<path d="M108.329 230.67C102.628 233.782 99.611 239.245 101.591 242.873C103.571 246.502 109.798 246.92 115.499 243.809C117.995 242.447 119.976 240.634 121.249 238.722L145.241 225.234L138.672 214.11L115.717 228.587C113.421 228.623 110.824 229.308 108.329 230.67Z" fill="#FFB6B6"/>
<path d="M189.238 145.667C189.238 145.667 179.833 142.086 176.593 146.396C173.352 150.706 151.946 203.009 151.946 203.009L120.539 219.411L129.371 234.791L169.814 221.326L196.497 172.526L189.238 145.667Z" fill="#E6E6E6"/>
<path d="M485.816 317.433V423.579C485.816 432.966 478.179 440.602 468.792 440.602H206.433C197.046 440.602 189.409 432.966 189.409 423.579V317.433C189.409 308.046 197.046 300.41 206.433 300.41H468.792C478.179 300.41 485.816 308.046 485.816 317.433Z" fill="white"/>
<path d="M485.816 317.433V423.579C485.816 432.966 478.179 440.602 468.792 440.602H206.433C197.046 440.602 189.409 432.966 189.409 423.579V317.433C189.409 308.046 197.046 300.41 206.433 300.41H468.792C478.179 300.41 485.816 308.046 485.816 317.433ZM468.792 438.6C477.088 438.6 483.813 431.875 483.813 423.579V370.065C483.813 332.702 453.524 302.413 416.161 302.413H206.433C198.137 302.413 191.412 309.138 191.412 317.433V423.579C191.412 431.875 198.137 438.6 206.433 438.6H468.792Z" fill="#3F3D56"/>
<path d="M307.181 364.539H272.914C272.05 364.539 271.347 365.242 271.347 366.106C271.347 366.97 272.05 367.673 272.914 367.673H307.181C308.045 367.673 308.748 366.97 308.748 366.106C308.748 365.242 308.045 364.539 307.181 364.539Z" fill="#ACB6E5"/>
<path d="M359.253 364.539H324.985C324.121 364.539 323.418 365.242 323.418 366.106C323.418 366.97 324.121 367.673 324.985 367.673H359.253C360.117 367.673 360.819 366.97 360.819 366.106C360.819 365.242 360.117 364.539 359.253 364.539Z" fill="#ACB6E5"/>
<path d="M307.181 381.669H272.914C272.05 381.669 271.347 382.372 271.347 383.236C271.347 384.1 272.05 384.803 272.914 384.803H307.181C308.045 384.803 308.748 384.1 308.748 383.236C308.748 382.372 308.045 381.669 307.181 381.669Z" fill="#ACB6E5"/>
<path d="M359.253 381.669H324.985C324.121 381.669 323.418 382.372 323.418 383.236C323.418 384.1 324.121 384.803 324.985 384.803H359.253C360.117 384.803 360.819 384.1 360.819 383.236C360.819 382.372 360.117 381.669 359.253 381.669Z" fill="#ACB6E5"/>
<path d="M412.891 383.236C412.891 382.372 412.188 381.669 411.324 381.669H377.057C376.193 381.669 375.49 382.372 375.49 383.236C375.49 384.1 376.193 384.803 377.057 384.803H411.324C412.188 384.803 412.891 384.1 412.891 383.236Z" fill="#ACB6E5"/>
<path d="M287.154 350.862C288.018 350.862 288.72 350.159 288.72 349.295C288.72 348.431 288.018 347.729 287.154 347.729H252.886C252.022 347.729 251.319 348.431 251.319 349.295C251.319 350.159 252.022 350.862 252.886 350.862H287.154Z" fill="#ACB6E5"/>
<path d="M388.072 350.225H422.339C423.203 350.225 423.906 349.522 423.906 348.658C423.906 347.794 423.203 347.091 422.339 347.091H388.072C387.208 347.091 386.505 347.794 386.505 348.658C386.505 349.522 387.208 350.225 388.072 350.225Z" fill="#ACB6E5"/>
<path d="M301.59 350.554H372.634C373.498 350.554 374.201 349.851 374.201 348.987C374.201 348.124 373.498 347.421 372.634 347.421H301.59C300.726 347.421 300.023 348.124 300.023 348.987C300.023 349.851 300.726 350.554 301.59 350.554Z" fill="#ACB6E5"/>
<path d="M329.542 397.232H295.275C294.411 397.232 293.708 397.935 293.708 398.799C293.708 399.662 294.411 400.365 295.275 400.365H329.542C330.406 400.365 331.109 399.662 331.109 398.799C331.109 397.935 330.406 397.232 329.542 397.232Z" fill="#ACB6E5"/>
<path d="M440.215 316.633V422.779C440.215 432.166 432.579 439.802 423.192 439.802H317.046C307.659 439.802 300.023 432.166 300.023 422.779V316.633C300.023 307.246 307.659 299.61 317.046 299.61H423.192C432.579 299.61 440.215 307.246 440.215 316.633Z" fill="white"/>
<path d="M440.215 316.633V422.779C440.215 432.166 432.579 439.802 423.192 439.802H317.046C307.659 439.802 300.023 432.166 300.023 422.779V316.633C300.023 307.246 307.659 299.61 317.046 299.61H423.192C432.579 299.61 440.215 307.246 440.215 316.633ZM416.607 437.799C428.539 437.799 438.212 428.126 438.212 416.194V369.264C438.212 331.901 407.924 301.613 370.561 301.613H317.046C308.751 301.613 302.026 308.337 302.026 316.633V407.969C302.026 424.444 315.381 437.799 331.856 437.799L416.607 437.799Z" fill="#3F3D56"/>
<path d="M384.249 342.961H349.981C349.117 342.961 348.414 342.258 348.414 341.395C348.414 340.531 349.117 339.828 349.981 339.828H384.249C385.113 339.828 385.815 340.531 385.815 341.395C385.815 342.258 385.113 342.961 384.249 342.961Z" fill="#ACB6E5"/>
<path d="M384.249 376.371H349.981C349.117 376.371 348.414 375.668 348.414 374.804C348.414 373.94 349.117 373.238 349.981 373.238H384.249C385.113 373.238 385.815 373.94 385.815 374.804C385.815 375.668 385.113 376.371 384.249 376.371Z" fill="#ACB6E5"/>
<path d="M367.226 422.434H332.958C332.094 422.434 331.391 421.731 331.391 420.867C331.391 420.003 332.094 419.301 332.958 419.301H367.226C368.089 419.301 368.792 420.003 368.792 420.867C368.792 421.731 368.089 422.434 367.226 422.434Z" fill="#ACB6E5"/>
<path d="M402.637 359.677H331.593C330.729 359.677 330.026 358.974 330.026 358.11C330.026 357.246 330.729 356.544 331.593 356.544H402.637C403.501 356.544 404.204 357.246 404.204 358.11C404.204 358.974 403.501 359.677 402.637 359.677Z" fill="#ACB6E5"/>
<path d="M420.243 257.815C420.243 224.703 392.256 206.487 360.287 197.86C319.3 186.798 289.282 209.181 300.332 257.815C302.836 268.838 308.826 281.711 316.24 292.723H375.075C394.728 279.929 420.243 283.517 420.243 257.815Z" fill="#ACB6E5"/>
<path d="M359.407 320.411C362.754 314.031 366.997 309.428 371.672 305.924H316.566C330.749 326.184 349.558 339.186 359.407 320.411Z" fill="#ACB6E5"/>
<path d="M353.049 222.367C356.586 222.367 359.454 225.235 359.454 228.773V241.584H346.643V228.773C346.643 225.235 349.511 222.367 353.049 222.367ZM362.657 241.584V228.773C362.657 223.466 358.355 219.164 353.049 219.164C347.742 219.164 343.44 223.466 343.44 228.773V241.584C339.902 241.584 337.035 244.452 337.035 247.99V264.003C337.035 267.541 339.902 270.409 343.44 270.409H362.657C366.195 270.409 369.062 267.541 369.062 264.003V247.99C369.062 244.452 366.195 241.584 362.657 241.584ZM343.44 244.787H362.657C364.426 244.787 365.86 246.221 365.86 247.989V264.003C365.86 265.772 364.426 267.206 362.657 267.206H343.44C341.671 267.206 340.237 265.772 340.237 264.003V247.989C340.237 246.221 341.671 244.787 343.44 244.787Z" fill="white"/>
<path d="M261.509 296.951C260.737 303.4 263.438 309.026 267.541 309.517C271.645 310.009 275.598 305.179 276.371 298.731C276.709 295.908 276.381 293.242 275.562 291.096L278.492 263.729L265.62 262.628L264.098 289.723C262.795 291.615 261.847 294.128 261.509 296.951Z" fill="#FFB6B6"/>
<path d="M264.597 133.683C264.597 133.683 278.617 129.678 281.621 135.686C284.625 141.694 291.635 220.803 291.635 220.803L278.116 283.949L262.595 279.884L270.606 215.796L259.591 167.73L264.597 133.683Z" fill="#E6E6E6"/>
</svg>
