<svg width="621" height="317" viewBox="0 0 621 317" fill="none" xmlns="http://www.w3.org/2000/svg">
<g clip-path="url(#clip0_175_223)">
<path d="M592.646 175.255L590.703 190.725L585.882 229.148H489.02C489.776 220.536 490.81 208.141 491.915 194.759C492.024 193.423 492.138 192.078 492.247 190.725C495.017 157.088 498.048 119.023 498.048 119.023L510.782 121.396L535.489 125.99L545.556 127.861L572.516 132.881C585.958 135.378 595.204 154.841 592.646 175.255Z" fill="#F2F2F2"/>
<path d="M519.379 56.7777L531.29 77.622L508.396 93.8468L498.63 68.2252L519.379 56.7777Z" fill="#FFB6B6"/>
<path d="M504.215 76.4973C520.512 76.4973 533.723 63.2858 533.723 46.9886C533.723 30.6914 520.512 17.4799 504.215 17.4799C487.917 17.4799 474.706 30.6914 474.706 46.9886C474.706 63.2858 487.917 76.4973 504.215 76.4973Z" fill="#FFB6B6"/>
<path d="M502.096 53.5855C499.752 50.0195 500.672 48.1543 498.711 46.8438C498.71 46.8438 497.921 46.3164 492.272 46.0158C491.007 36.9123 489.428 35.8083 489.428 35.8083C487.608 34.5359 484.908 34.9493 483.227 35.7275C479.674 37.3734 480.086 40.9286 477.694 41.6089C474.388 42.5487 468.375 37.2506 467.783 31.1853C467.3 26.2378 470.487 21.4325 471.751 21.6867C473.005 21.9387 476.006 18.1072 477.627 18.1663C478.733 18.2067 483.255 16.2413 484.471 16.395C485.8 16.5628 490.18 18.8485 490.362 18.3263C491.631 14.6974 491.258 13.6906 492.334 12.6524C494.241 10.8129 497.361 12.0939 502.255 12.7816C512.325 14.1966 514.082 10.8764 519.243 13.1269C521.849 14.2637 524.031 17.3297 528.287 23.4151C534.239 31.9256 537.215 36.1808 537.234 41.144C537.254 46.2055 534.803 45.8842 533.726 53.3773C532.528 61.7184 535.074 65.5324 532.292 68.2422C530.142 70.3366 525.772 70.8338 523.476 68.9957C519.545 65.8486 524.69 58.2549 520.339 52.7068C517.669 49.3012 512.299 47.7859 509.839 49.4693C507.058 51.3728 508.59 56.9598 506.634 57.4896C504.959 57.9433 502.504 54.2069 502.096 53.5855Z" fill="#2F2E41"/>
<path d="M570.835 169.807C570.012 183.88 566.743 188.323 565.597 204.944C565.347 208.593 565.197 212.828 565.197 217.879C565.197 219.167 565.204 220.412 565.204 221.628C565.204 224.218 565.155 226.665 564.853 229.148C564.625 231.13 564.232 233.126 563.58 235.229H500.025C500.018 235.215 500.018 235.201 500.011 235.186C499.639 233.57 499.403 232.024 499.224 230.543C499.167 230.071 499.116 229.606 499.074 229.148C499.016 228.611 498.966 228.082 498.917 227.56C498.723 225.478 498.53 223.51 498.072 221.628C497.457 219.031 496.34 216.584 494.051 214.223C493.114 213.257 492.177 212.506 491.261 211.848C491.082 211.726 490.91 211.605 490.731 211.483C488.199 209.744 485.802 208.492 483.727 204.944C483.691 204.894 483.663 204.836 483.634 204.786C483.276 204.164 482.346 202.532 481.673 200.358C480.965 198.097 480.536 195.256 481.309 192.352C483.148 185.469 489.959 184.782 495.525 177.827C496.126 177.076 496.72 176.246 497.285 175.323C499.803 171.231 500.483 167.625 501.284 163.339C501.413 162.645 501.528 161.958 501.621 161.293C501.693 160.792 501.757 160.299 501.807 159.812C502.25 155.727 502.036 152.207 501.514 149.059C499.811 138.749 494.788 132.367 498.337 123.116C499.453 120.211 501.034 118.029 502.629 116.161C506.006 112.205 509.477 109.636 508.876 104.528C508.267 99.3766 504.361 98.6681 503.925 94.1678C503.703 91.8929 504.447 89.496 505.842 87.1421V87.1351C510.307 79.5581 521.454 72.5823 528.536 72.8041C529.846 72.8401 531.005 73.1332 531.971 73.6984C535.47 75.7589 534.01 80.2592 539.369 86.5698C543.354 91.256 547.861 93.1306 549.571 94.0176C556.347 97.5523 561.856 107.977 565.597 121.306C565.626 121.406 565.655 121.506 565.683 121.613C567.995 129.963 569.626 139.443 570.435 149.059C570.778 153.13 570.978 157.222 571.021 161.271C571.057 164.505 570.985 167.31 570.835 169.807Z" fill="#ACB6E5"/>
<path d="M523.242 218.022L521.947 221.628L521.132 223.889L519.242 229.148L517.053 235.229H502.98L505.341 229.148L506.436 226.315L508.253 221.628L511.301 213.758L523.242 218.022Z" fill="#FFB6B6"/>
<path d="M565.82 120.075C565.784 120.54 565.734 121.055 565.684 121.613C565.126 127.294 563.809 137.461 561.885 149.059C560.869 155.176 559.681 161.694 558.343 168.169C555.467 182.142 551.89 195.9 547.847 204.944C547.125 206.575 546.381 208.049 545.622 209.351C545.043 210.346 544.434 211.325 543.798 212.291C541.737 215.461 539.426 218.466 537.029 221.271C536.936 221.392 536.829 221.507 536.722 221.628C536.335 222.086 535.934 222.537 535.534 222.988C533.573 225.198 531.57 227.259 529.631 229.148C527.271 231.452 524.995 233.491 522.956 235.229H500.104L500.011 235.186L496.72 233.727C496.72 233.727 497.657 232.625 499.224 230.543C499.546 230.121 499.889 229.656 500.262 229.148C500.719 228.525 501.213 227.838 501.742 227.094C502.844 225.535 504.096 223.703 505.441 221.628C508.046 217.614 511.015 212.678 514.013 206.961C514.357 206.296 514.707 205.623 515.057 204.944C515.064 204.922 515.079 204.901 515.086 204.879C515.68 203.72 516.267 202.525 516.853 201.309C521.826 190.963 523.25 182.378 523.658 179.595C524.23 175.66 525.024 170.157 524.809 164.105C524.666 160.113 524.087 155.891 522.706 151.699V151.692C522.419 150.812 522.097 149.932 521.733 149.059C521.081 147.492 520.309 145.946 519.393 144.422C515.351 137.711 512.067 137.432 509.455 130.12C508.682 127.952 506.929 123.059 507.466 117.893V117.886C507.531 117.249 507.638 116.605 507.781 115.961V115.954C507.817 115.775 507.867 115.589 507.917 115.41C508.325 113.829 508.997 112.262 510.02 110.774C512.017 107.884 514.742 106.166 517.182 105.143L517.19 105.136C520.008 103.963 522.441 103.712 522.913 103.669C533.366 102.739 541.472 111.525 545.901 116.326C547.611 118.179 549.178 119.732 550.609 120.998C561.748 130.943 564.804 124.589 565.598 121.306C565.719 120.798 565.784 120.361 565.82 120.075Z" fill="#ACB6E5"/>
<path d="M565.855 119.703C565.855 119.739 565.848 119.86 565.82 120.061C565.834 119.953 565.841 119.846 565.848 119.746C565.848 119.724 565.848 119.71 565.855 119.703Z" fill="#ACB6E5"/>
<path d="M509.033 270.674H125.507C121.944 270.674 119.04 273.571 119.04 277.134C119.04 280.704 121.944 283.602 125.507 283.602H509.033C512.596 283.602 515.494 280.704 515.494 277.134C515.494 273.571 512.596 270.674 509.033 270.674Z" fill="#E6E6E6"/>
<path d="M423.921 304.072H210.612C207.049 304.072 204.151 306.969 204.151 310.532C204.151 314.095 207.049 317 210.612 317H423.921C427.484 317 430.389 314.095 430.389 310.532C430.389 306.969 427.484 304.072 423.921 304.072Z" fill="#E6E6E6"/>
<path d="M168.184 58.1494L192.355 47.9771L202.723 69.2303L177.323 79.5977L168.184 58.1494Z" fill="#FFB6B6"/>
<path opacity="0.1" d="M168.184 58.1494L192.355 47.9771L202.723 69.2303L177.323 79.5977L168.184 58.1494Z" fill="black"/>
<path d="M171.62 50.0505L195.466 77.5243C195.466 77.5243 178.878 129.88 162.29 134.545C145.702 139.211 115.118 162.019 115.118 162.019L76.7583 137.137L95.4197 109.663C95.4197 109.663 140.518 47.9771 152.441 47.9771C164.363 47.9771 171.62 50.0505 171.62 50.0505Z" fill="#ACB6E5"/>
<path d="M139.404 229.148H83.8965L80.3871 224.457L66.0593 205.303L62.7624 200.897C62.7624 200.897 50.3215 178.088 52.9133 157.354C55.5052 136.619 82.4606 131.953 82.4606 131.953H83.5699L116.569 160.951L114.6 187.938L125.05 205.303L139.404 229.148Z" fill="#2F2E41"/>
<path d="M95.2642 229.148H80.387V207.117L95.2642 229.148Z" fill="#2F2E41"/>
<path d="M416.147 195.703L414.296 205.303L409.704 229.148H317.438C318.159 223.804 319.144 216.111 320.196 207.807C320.3 206.977 320.409 206.143 320.512 205.303C323.151 184.428 326.038 160.806 326.038 160.806L338.168 162.278L361.702 165.129L371.292 166.29L396.972 169.406C409.776 170.956 418.583 183.034 416.147 195.703Z" fill="#F2F2F2"/>
<path d="M546.72 229.148H496.676C497.438 228.251 497.868 227.733 497.868 227.733L512.87 225.255L543.78 220.154C543.78 220.154 545.19 223.798 546.72 229.148Z" fill="#2F2E41"/>
<path d="M334.448 68.5176L356.211 99.2955L318.249 100.429L314.175 71.5052L334.448 68.5176Z" fill="#A0616A"/>
<path opacity="0.1" d="M334.448 68.5176L356.211 99.2955L318.249 100.429L314.175 71.5052L334.448 68.5176Z" fill="black"/>
<path d="M227.122 132.287C224.33 124.232 217.91 119.143 212.783 120.921C207.657 122.699 205.766 130.669 208.561 138.727C209.633 141.961 211.464 144.892 213.901 147.273L226.164 181.255L241.988 175.161L228.219 142.308C228.659 138.928 228.283 135.492 227.122 132.287Z" fill="#A0616A"/>
<path d="M374.438 116.604L374.408 147.971L371.489 159.557L365.487 183.386L361.117 205.303L357.861 221.632L356.7 227.463C355.824 228.049 354.953 228.609 354.082 229.148H278.26C273.952 226.561 271.542 224.55 271.542 224.55C271.542 224.55 272.734 223.43 274.098 221.632C276.399 218.594 279.183 213.618 277.477 208.864C277.12 207.869 277.026 206.656 277.135 205.303C277.83 196.377 287.192 181.282 287.192 181.282L285.253 158.878L284.403 149.06L290.397 101.188L309.934 89.8302L313.307 89.5038L346.602 87.7051L360.364 88.4981L360.991 88.6692L374.438 116.604Z" fill="#CCCCCC"/>
<path d="M375.916 229.148H359.328L358.597 221.632L358.582 221.481L363.278 221.16L375.496 220.325L375.709 224.825L375.875 228.277L375.916 229.148Z" fill="#FFB6B6"/>
<path d="M380 124.188L386.968 165.072L381.281 205.303L380.395 211.565L378.829 222.622L378.347 226.022L378.363 226.39L378.482 229.148H358.784L358.058 221.632L357.996 220.958L356.513 205.562L356.488 205.303L353.341 172.656L359.51 149.06L359.966 147.323V147.318L362.65 106.916L360.571 88.5553L360.55 88.3842C360.592 88.4101 360.628 88.436 360.67 88.4619C360.778 88.5293 360.887 88.5967 360.991 88.6693C373.1 96.3516 380.316 109.829 380 124.188Z" fill="#CCCCCC"/>
<path d="M297.454 109.022L289.879 101.187C289.879 101.187 273.663 108.497 272.855 112.553C272.047 116.609 243.416 176.176 243.416 176.176L230.96 142.908L214.746 153.733C214.746 153.733 227.756 205.384 239.923 207.809C252.09 210.234 292.869 146.675 292.869 146.675L297.454 109.022Z" fill="#CCCCCC"/>
<path d="M605.027 204.944H15.1394C6.78995 204.944 0 211.741 0 220.09C0 228.439 6.78994 235.229 15.1394 235.229H605.027C613.377 235.229 620.174 228.44 620.174 220.09C620.174 211.74 613.377 204.944 605.027 204.944Z" fill="#E6E6E6"/>
<path d="M370.985 158.79L369.839 212.309C369.728 217.49 365.496 221.632 360.314 221.632H261.864C256.805 221.632 252.628 217.677 252.351 212.625L249.426 159.106C249.127 153.649 253.472 149.06 258.938 149.06H361.461C366.802 149.06 371.1 153.45 370.985 158.79Z" fill="#3F3D56"/>
<path d="M212.053 71.0683C225.062 71.0683 235.608 60.5226 235.608 47.5138C235.608 34.505 225.062 23.9594 212.053 23.9594C199.045 23.9594 188.499 34.505 188.499 47.5138C188.499 60.5226 199.045 71.0683 212.053 71.0683Z" fill="#FFB6B6"/>
<path d="M172.657 109.145L175.249 137.137L192.874 208.154L177.647 213.491L151.922 136.1L148.369 104.998L172.657 109.145Z" fill="#FFB6B6"/>
<path d="M165.646 158.79L164.5 212.309C164.389 217.49 160.157 221.632 154.975 221.632H56.5251C51.4656 221.632 47.2887 217.677 47.0125 212.625L44.0868 159.106C43.7884 153.649 48.1335 149.06 53.5993 149.06H156.122C161.463 149.06 165.761 153.45 165.646 158.79Z" fill="#3F3D56"/>
<path d="M195.68 221.993C205.954 221.993 214.282 218.31 214.282 213.766C214.282 209.221 205.954 205.538 195.68 205.538C185.406 205.538 177.078 209.221 177.078 213.766C177.078 218.31 185.406 221.993 195.68 221.993Z" fill="#FFB6B6"/>
<path d="M136.112 113.425L146.739 56.7894C146.739 56.7894 176.286 52.6424 177.323 62.4915C178.359 72.3405 176.582 120.474 176.582 120.474L136.112 113.425Z" fill="#ACB6E5"/>
<path d="M202.545 51.2174C202.545 51.2174 217.116 46.0171 223.262 43.2191C229.408 40.4211 241.619 59.9369 241.89 49.63C242.162 39.323 237.943 35.0007 237.943 35.0007C237.943 35.0007 236.889 12.4527 214.173 15.2717C214.173 15.2717 219.169 3.99074 202.768 2.24634C186.366 0.501944 160.849 40.1095 163.134 46.0287C165.419 51.9478 168.159 56.8414 161.675 63.1703C155.192 69.4991 143.052 105.218 152.288 114.829C161.525 124.441 162.131 128.612 155.803 134.591C149.474 140.571 134.515 153.573 150.689 155.83C166.864 158.087 149.209 156.401 161.268 145.795C173.326 135.188 190.922 135.621 184.352 118.604C177.782 101.586 189.196 77.2002 187.768 73.5007C186.34 69.8013 190.968 46.3094 190.968 46.3094C190.968 46.3094 201.74 44.7269 202.545 51.2174Z" fill="#2F2E41"/>
<path d="M322.812 79.6575C336.973 79.6575 348.453 68.1778 348.453 54.0168C348.453 39.8558 336.973 28.3761 322.812 28.3761C308.651 28.3761 297.171 39.8558 297.171 54.0168C297.171 68.1778 308.651 79.6575 322.812 79.6575Z" fill="#A0616A"/>
<path d="M324.858 19.5447C324.116 19.9778 323.123 19.3225 322.885 18.497C322.647 17.6715 322.924 16.7951 323.199 15.9811L324.582 11.8835C325.563 8.97741 326.605 5.96976 328.73 3.75784C331.937 0.419301 337.034 -0.430007 341.623 0.185287C347.515 0.975448 353.329 4.16618 356.069 9.44246C358.809 14.7188 357.642 22.0811 352.692 25.3729C359.747 33.4601 362.207 42.473 361.819 53.1985C361.43 63.9241 349.742 73.795 342.12 81.3508C340.418 80.3189 338.87 75.4833 339.806 73.7266C340.742 71.9699 339.401 69.9347 340.56 68.3166C341.72 66.6985 342.689 69.275 341.518 67.6661C340.778 66.6508 343.664 64.3152 342.565 63.7075C337.248 60.7684 335.48 54.1409 332.14 49.0658C328.112 42.9441 321.218 38.7985 313.923 38.1108C309.904 37.7319 305.659 38.4181 302.365 40.7513C299.071 43.0845 296.938 47.2538 297.702 51.2176C295.724 49.2089 294.739 46.2651 295.11 43.4703C295.482 40.6756 297.201 38.0912 299.635 36.6689C298.155 31.7741 299.423 26.1437 302.859 22.3559C306.294 18.5681 320.231 19.2133 325.246 20.2101L324.858 19.5447Z" fill="#2F2E41"/>
<path d="M325.637 38.2594C332.28 38.9765 337.077 44.7308 341.127 50.0449C343.461 53.1079 345.907 56.4904 345.848 60.3411C345.789 64.2342 343.186 67.5734 341.942 71.2629C339.908 77.2935 341.89 84.4686 346.73 88.6007C341.948 89.5083 336.777 85.9222 335.952 81.1247C334.991 75.5397 339.224 70.1494 338.723 64.5045C338.281 59.5314 334.362 55.7039 331.03 51.9855C327.698 48.2671 324.569 43.3328 326.102 38.5812L325.637 38.2594Z" fill="#2F2E41"/>
<path d="M424.949 208.185C418.369 211.927 414.967 218.356 417.349 222.543C419.732 226.73 426.996 227.09 433.578 223.345C436.228 221.885 438.489 219.812 440.173 217.299L467.853 201.089L459.969 188.262L433.519 205.604C430.498 205.767 427.559 206.652 424.949 208.185Z" fill="#FFB6B6"/>
<path d="M518.666 89.3194C517.839 88.9916 510.581 86.2431 503.955 89.8719C496.344 94.0404 495.169 103.556 494.756 106.894C493.804 114.604 496.61 116.332 497.202 124.137C498.31 138.74 501.233 122.081 496.566 128.746C494.95 131.054 478.452 166.808 469.353 173.811C451.658 187.432 440.42 197.024 440.42 197.024L453.249 210.959C453.249 210.959 473.521 205.558 491.438 193.924C509.817 181.99 519.007 176.023 526.116 164.35C526.728 163.345 541.378 138.467 533.51 110.959C531.716 104.684 528.428 93.1877 518.666 89.3194Z" fill="#ACB6E5"/>
<path d="M584.91 158.79L583.763 212.309C583.652 217.49 579.42 221.632 574.238 221.632H475.788C470.729 221.632 466.552 217.677 466.276 212.625L463.35 159.106C463.052 153.649 467.397 149.06 472.862 149.06H575.385C580.726 149.06 585.024 153.45 584.91 158.79Z" fill="#3F3D56"/>
</g>
<defs>
<clipPath id="clip0_175_223">
<rect width="620.174" height="317" fill="white"/>
</clipPath>
</defs>
</svg>
