<svg width="298" height="152" viewBox="0 0 298 152" fill="none" xmlns="http://www.w3.org/2000/svg">
<g clip-path="url(#clip0_175_355)">
<path d="M284.072 84.0048L283.141 91.4198L280.83 109.837H234.401C234.764 105.709 235.26 99.7677 235.789 93.3536C235.841 92.713 235.896 92.0684 235.948 91.4198C237.276 75.2965 238.729 57.0513 238.729 57.0513L244.833 58.1884L256.675 60.3905L261.501 61.2873L274.423 63.6936C280.866 64.8907 285.298 74.2195 284.072 84.0048Z" fill="#F2F2F2"/>
<path d="M248.953 27.2151L254.663 37.2064L243.689 44.9834L239.008 32.7022L248.953 27.2151Z" fill="#FFB6B6"/>
<path d="M241.684 36.6673C249.496 36.6673 255.829 30.3347 255.829 22.523C255.829 14.7113 249.496 8.3786 241.684 8.3786C233.873 8.3786 227.54 14.7113 227.54 22.523C227.54 30.3347 233.873 36.6673 241.684 36.6673Z" fill="#FFB6B6"/>
<path d="M240.669 25.685C239.546 23.9757 239.987 23.0817 239.046 22.4535C239.046 22.4535 238.668 22.2008 235.96 22.0566C235.354 17.6931 234.597 17.1639 234.597 17.1639C233.725 16.554 232.43 16.7522 231.625 17.1252C229.922 17.9141 230.119 19.6182 228.972 19.9443C227.388 20.3948 224.506 17.8552 224.222 14.948C223.99 12.5765 225.518 10.2732 226.124 10.395C226.725 10.5158 228.164 8.67928 228.94 8.70761C229.471 8.72695 231.638 7.78491 232.221 7.85856C232.858 7.93901 234.957 9.0346 235.045 8.78429C235.653 7.04488 235.474 6.56226 235.99 6.06465C236.904 5.1829 238.399 5.79693 240.745 6.12658C245.572 6.80484 246.414 5.21334 248.888 6.29207C250.138 6.83699 251.183 8.30658 253.223 11.2235C256.076 15.3028 257.503 17.3425 257.512 19.7214C257.521 22.1476 256.346 21.9936 255.83 25.5852C255.256 29.5833 256.476 31.4115 255.143 32.7104C254.113 33.7143 252.018 33.9526 250.917 33.0715C249.033 31.5631 251.499 27.9232 249.414 25.2639C248.134 23.6315 245.56 22.9051 244.381 23.712C243.047 24.6244 243.782 27.3024 242.844 27.5564C242.041 27.7738 240.865 25.9829 240.669 25.685Z" fill="#2F2E41"/>
<path d="M273.617 81.3933C273.223 88.139 271.656 90.2687 271.107 98.2352C270.987 99.9843 270.915 102.014 270.915 104.436C270.915 105.053 270.918 105.65 270.918 106.233C270.918 107.474 270.894 108.647 270.75 109.837C270.641 110.787 270.452 111.744 270.14 112.752H239.676C239.673 112.745 239.673 112.738 239.669 112.731C239.491 111.956 239.378 111.216 239.292 110.506C239.265 110.279 239.241 110.057 239.22 109.837C239.193 109.58 239.169 109.326 239.145 109.076C239.052 108.078 238.96 107.135 238.74 106.233C238.445 104.988 237.91 103.815 236.812 102.683C236.363 102.22 235.914 101.86 235.475 101.545C235.389 101.486 235.307 101.428 235.221 101.37C234.007 100.536 232.859 99.9362 231.864 98.2352C231.847 98.2113 231.833 98.1838 231.819 98.1599C231.648 97.8615 231.202 97.0795 230.88 96.0371C230.54 94.9533 230.334 93.5918 230.705 92.1996C231.586 88.9004 234.851 88.5712 237.519 85.2377C237.807 84.8777 238.092 84.4798 238.363 84.0374C239.57 82.0757 239.896 80.3474 240.28 78.2931C240.341 77.9604 240.396 77.6312 240.441 77.3124C240.475 77.0722 240.506 76.8356 240.53 76.6024C240.743 74.6442 240.64 72.9569 240.39 71.448C239.573 66.5061 237.166 63.4471 238.867 59.0128C239.402 57.6206 240.16 56.5745 240.924 55.6795C242.543 53.7829 244.207 52.5518 243.919 50.1033C243.627 47.634 241.754 47.2944 241.545 45.1373C241.439 44.0468 241.796 42.898 242.464 41.7697V41.7663C244.604 38.1344 249.947 34.7907 253.342 34.8971C253.97 34.9143 254.526 35.0548 254.988 35.3257C256.666 36.3134 255.966 38.4705 258.535 41.4954C260.445 43.7416 262.605 44.6401 263.425 45.0653C266.673 46.7596 269.313 51.7562 271.107 58.1452C271.121 58.1933 271.134 58.2412 271.148 58.2927C272.256 62.2949 273.038 66.8389 273.425 71.448C273.59 73.3993 273.686 75.361 273.706 77.302C273.724 78.8521 273.689 80.1966 273.617 81.3933Z" fill="#ACB6E5"/>
<path d="M250.805 104.504L250.184 106.233L249.793 107.316L248.888 109.837L247.838 112.752H241.093L242.224 109.837L242.749 108.479L243.62 106.233L245.081 102.46L250.805 104.504Z" fill="#FFB6B6"/>
<path d="M271.213 57.5553C271.196 57.7783 271.172 58.0252 271.148 58.2927C270.881 61.0157 270.249 65.8889 269.327 71.448C268.84 74.3801 268.271 77.5044 267.629 80.608C266.251 87.3056 264.536 93.9006 262.599 98.2353C262.252 99.0173 261.896 99.7237 261.532 100.348C261.254 100.825 260.962 101.294 260.657 101.757C259.67 103.277 258.562 104.717 257.413 106.061C257.369 106.12 257.317 106.175 257.266 106.233C257.081 106.452 256.888 106.668 256.696 106.884C255.757 107.944 254.797 108.932 253.867 109.837C252.736 110.941 251.645 111.919 250.668 112.752H239.714L239.669 112.731L238.092 112.032C238.092 112.032 238.541 111.504 239.292 110.506C239.446 110.303 239.611 110.081 239.789 109.837C240.009 109.539 240.246 109.209 240.499 108.853C241.027 108.105 241.627 107.227 242.272 106.233C243.521 104.309 244.944 101.942 246.381 99.2025C246.545 98.8835 246.713 98.5611 246.881 98.2352C246.885 98.225 246.892 98.2146 246.895 98.2044C247.18 97.6488 247.461 97.0761 247.742 96.4931C250.126 91.5341 250.808 87.4188 251.004 86.0849C251.278 84.1987 251.658 81.5613 251.556 78.66C251.487 76.7465 251.209 74.723 250.548 72.7134V72.7101C250.41 72.2883 250.256 71.8665 250.081 71.448C249.769 70.697 249.399 69.9562 248.959 69.2257C247.022 66.009 245.448 65.8752 244.196 62.3702C243.826 61.3312 242.985 58.9855 243.243 56.5094V56.506C243.274 56.2008 243.325 55.8921 243.394 55.5834V55.58C243.411 55.4943 243.435 55.4052 243.459 55.3194C243.654 54.5616 243.977 53.8104 244.467 53.097C245.424 51.7117 246.73 50.8885 247.9 50.3982L247.904 50.3947C249.255 49.8324 250.421 49.7123 250.647 49.6917C255.657 49.2459 259.543 53.4572 261.666 55.7583C262.485 56.6465 263.237 57.3908 263.922 57.9977C269.262 62.7647 270.726 59.7193 271.107 58.1452C271.165 57.9017 271.196 57.6926 271.213 57.5553Z" fill="#ACB6E5"/>
<path d="M271.23 57.3771C271.23 57.3942 271.227 57.4526 271.213 57.5489C271.22 57.4972 271.223 57.4457 271.227 57.3976C271.227 57.3874 271.227 57.3805 271.23 57.3771Z" fill="#ACB6E5"/>
<path d="M243.994 129.741H60.1588C58.4508 129.741 57.0586 131.13 57.0586 132.838C57.0586 134.55 58.4508 135.938 60.1588 135.938H243.994C245.701 135.938 247.09 134.55 247.09 132.838C247.09 131.13 245.701 129.741 243.994 129.741Z" fill="#E6E6E6"/>
<path d="M203.197 145.75H100.952C99.2443 145.75 97.8555 147.139 97.8555 148.847C97.8555 150.555 99.2443 151.947 100.952 151.947H203.197C204.905 151.947 206.298 150.555 206.298 148.847C206.298 147.139 204.905 145.75 203.197 145.75Z" fill="#E6E6E6"/>
<path d="M80.6152 27.8726L92.2011 22.9968L97.1705 33.184L84.9955 38.1535L80.6152 27.8726Z" fill="#FFB6B6"/>
<path opacity="0.1" d="M80.6152 27.8726L92.2011 22.9968L97.1705 33.184L84.9955 38.1535L80.6152 27.8726Z" fill="black"/>
<path d="M82.2621 23.9906L93.6917 37.1596C93.6917 37.1596 85.7407 62.2551 77.7896 64.4913C69.8385 66.7276 55.1788 77.6602 55.1788 77.6602L36.792 65.7337L45.7369 52.5647C45.7369 52.5647 67.3539 22.9968 73.0687 22.9968C78.7835 22.9968 82.2621 23.9906 82.2621 23.9906Z" fill="#ACB6E5"/>
<path d="M66.8199 109.837H40.2137L38.5316 107.588L31.6639 98.4075L30.0836 96.2955C30.0836 96.2955 24.1203 85.3628 25.3627 75.424C26.605 65.4852 39.5255 63.249 39.5255 63.249H40.0572L55.8748 77.1484L54.9306 90.0838L59.9398 98.4075L66.8199 109.837Z" fill="#2F2E41"/>
<path d="M45.6633 109.837H38.5322V99.2772L45.6633 109.837Z" fill="#2F2E41"/>
<path d="M199.471 93.8058L198.584 98.4075L196.382 109.837H152.157C152.503 107.275 152.975 103.588 153.479 99.6076C153.529 99.2101 153.581 98.81 153.631 98.4075C154.895 88.4016 156.279 77.0788 156.279 77.0788L162.094 77.7845L173.374 79.1511L177.971 79.7076L190.28 81.2009C196.417 81.9439 200.639 87.7332 199.471 93.8058Z" fill="#F2F2F2"/>
<path d="M262.059 109.837H238.071C238.437 109.407 238.643 109.159 238.643 109.159L245.834 107.971L260.65 105.526C260.65 105.526 261.326 107.273 262.059 109.837Z" fill="#2F2E41"/>
<path d="M160.311 32.8424L170.742 47.5951L152.546 48.1385L150.593 34.2744L160.311 32.8424Z" fill="#A0616A"/>
<path opacity="0.1" d="M160.311 32.8424L170.742 47.5951L152.546 48.1385L150.593 34.2744L160.311 32.8424Z" fill="black"/>
<path d="M108.866 63.409C107.527 59.5477 104.45 57.1085 101.993 57.9608C99.5354 58.813 98.6292 62.6335 99.9687 66.4959C100.483 68.0462 101.36 69.4508 102.528 70.5923L108.406 86.8809L115.991 83.9596L109.391 68.2121C109.602 66.592 109.422 64.945 108.866 63.409Z" fill="#A0616A"/>
<path d="M179.478 55.8918L179.464 70.9267L178.065 76.48L175.188 87.9022L173.093 98.4075L171.533 106.234L170.976 109.03C170.556 109.31 170.139 109.579 169.721 109.837H133.377C131.313 108.597 130.157 107.633 130.157 107.633C130.157 107.633 130.729 107.097 131.382 106.234C132.485 104.778 133.82 102.393 133.002 100.115C132.831 99.6374 132.786 99.056 132.838 98.4075C133.171 94.1289 137.659 86.8934 137.659 86.8934L136.729 76.1545L136.322 71.4485L139.195 48.5021L148.56 43.0582L150.176 42.9017L166.136 42.0396L172.732 42.4197L173.033 42.5017L179.478 55.8918Z" fill="#CCCCCC"/>
<path d="M180.187 109.837H172.236L171.885 106.234L171.878 106.162L174.129 106.008L179.986 105.608L180.087 107.765L180.167 109.42L180.187 109.837Z" fill="#FFB6B6"/>
<path d="M182.144 59.5269L185.484 79.1237L182.759 98.4075L182.334 101.409L181.583 106.709L181.352 108.339L181.36 108.515L181.417 109.837H171.975L171.627 106.234L171.597 105.911L170.887 98.5317L170.874 98.4075L169.366 82.7588L172.323 71.4485L172.542 70.6161V70.6136L173.828 51.2478L172.832 42.447L172.822 42.365C172.842 42.3774 172.859 42.3899 172.879 42.4023C172.931 42.4346 172.983 42.4669 173.033 42.5017C178.837 46.184 182.296 52.6442 182.144 59.5269Z" fill="#CCCCCC"/>
<path d="M142.578 52.2573L138.947 48.5018C138.947 48.5018 131.174 52.0059 130.787 53.9499C130.399 55.8939 116.676 84.4463 116.676 84.4463L110.705 68.4999L102.934 73.6887C102.934 73.6887 109.17 98.4464 115.002 99.6087C120.834 100.771 140.38 70.3056 140.38 70.3056L142.578 52.2573Z" fill="#CCCCCC"/>
<path d="M290.007 98.2352H7.25673C3.25461 98.2352 0 101.493 0 105.495C0 109.497 3.25461 112.752 7.25673 112.752H290.007C294.009 112.752 297.267 109.498 297.267 105.495C297.267 101.493 294.009 98.2352 290.007 98.2352Z" fill="#E6E6E6"/>
<path d="M177.824 76.1127L177.274 101.766C177.221 104.249 175.193 106.234 172.709 106.234H125.519C123.094 106.234 121.092 104.339 120.959 101.917L119.557 76.2642C119.414 73.6482 121.496 71.4485 124.116 71.4485H173.258C175.819 71.4485 177.879 73.5531 177.824 76.1127Z" fill="#3F3D56"/>
<path d="M101.643 34.065C107.878 34.065 112.933 29.0102 112.933 22.7747C112.933 16.5392 107.878 11.4844 101.643 11.4844C95.4074 11.4844 90.3525 16.5392 90.3525 22.7747C90.3525 29.0102 95.4074 34.065 101.643 34.065Z" fill="#FFB6B6"/>
<path d="M82.7591 52.3163L84.0015 65.7337L92.4494 99.7741L85.151 102.332L72.8203 65.2367L71.1172 50.3285L82.7591 52.3163Z" fill="#FFB6B6"/>
<path d="M79.3989 76.1127L78.8492 101.766C78.796 104.249 76.7677 106.234 74.2838 106.234H27.094C24.6689 106.234 22.6667 104.339 22.5344 101.917L21.1319 76.2642C20.9889 73.6482 23.0717 71.4485 25.6916 71.4485H74.8336C77.3938 71.4485 79.4538 73.5531 79.3989 76.1127Z" fill="#3F3D56"/>
<path d="M93.7954 106.408C98.7199 106.408 102.712 104.642 102.712 102.464C102.712 100.286 98.7199 98.52 93.7954 98.52C88.871 98.52 84.8789 100.286 84.8789 102.464C84.8789 104.642 88.871 106.408 93.7954 106.408Z" fill="#FFB6B6"/>
<path d="M65.2422 54.3676L70.3358 27.2208C70.3358 27.2208 84.4986 25.233 84.9956 29.9539C85.4925 34.6749 84.6405 57.7467 84.6405 57.7467L65.2422 54.3676Z" fill="#ACB6E5"/>
<path d="M97.086 24.5499C97.086 24.5499 104.07 22.0573 107.016 20.7161C109.962 19.375 115.815 28.7295 115.945 23.789C116.076 18.8486 114.053 16.7768 114.053 16.7768C114.053 16.7768 113.548 5.96893 102.659 7.32017C102.659 7.32017 105.055 1.91287 97.1927 1.07673C89.3309 0.240588 77.0999 19.2256 78.1953 22.0628C79.2906 24.9 80.6037 27.2457 77.4961 30.2793C74.3884 33.3129 68.5691 50.4338 72.9966 55.0409C77.4242 59.648 77.7147 61.6472 74.6811 64.5134C71.6476 67.3796 64.4771 73.6118 72.2301 74.6937C79.983 75.7756 71.5208 74.9676 77.3007 69.8835C83.0806 64.7994 91.5148 65.0071 88.3656 56.8501C85.2164 48.6931 90.6877 37.0042 90.0031 35.231C89.3185 33.4577 91.5369 22.1974 91.5369 22.1974C91.5369 22.1974 96.7 21.4389 97.086 24.5499Z" fill="#2F2E41"/>
<path d="M154.734 38.1821C161.521 38.1821 167.024 32.6796 167.024 25.8918C167.024 19.1041 161.521 13.6015 154.734 13.6015C147.946 13.6015 142.443 19.1041 142.443 25.8918C142.443 32.6796 147.946 38.1821 154.734 38.1821Z" fill="#A0616A"/>
<path d="M155.714 9.36833C155.358 9.57592 154.882 9.26183 154.768 8.86615C154.654 8.47046 154.787 8.05035 154.919 7.6602L155.582 5.6961C156.052 4.30313 156.551 2.86148 157.57 1.80124C159.107 0.200983 161.55 -0.206115 163.75 0.0888132C166.574 0.46756 169.361 1.99697 170.674 4.52604C171.987 7.05512 171.428 10.5841 169.055 12.162C172.437 16.0384 173.616 20.3585 173.43 25.4996C173.244 30.6406 167.642 35.372 163.988 38.9937C163.172 38.4991 162.43 36.1813 162.879 35.3392C163.328 34.4972 162.685 33.5217 163.241 32.7461C163.796 31.9705 164.261 33.2055 163.699 32.4343C163.345 31.9476 164.728 30.8281 164.201 30.5368C161.653 29.128 160.805 25.9513 159.204 23.5186C157.274 20.5843 153.969 18.5972 150.472 18.2676C148.546 18.086 146.511 18.4149 144.932 19.5332C143.353 20.6516 142.331 22.6501 142.697 24.55C141.749 23.5872 141.277 22.1762 141.455 20.8366C141.633 19.497 142.457 18.2582 143.624 17.5765C142.915 15.2302 143.522 12.5314 145.169 10.7158C146.816 8.90023 153.496 9.20946 155.9 9.68729L155.714 9.36833Z" fill="#2F2E41"/>
<path d="M156.088 18.3388C159.272 18.6825 161.571 21.4407 163.513 23.988C164.631 25.4561 165.804 27.0774 165.775 28.9232C165.747 30.7893 164.499 32.3898 163.903 34.1583C162.928 37.049 163.878 40.4882 166.198 42.4688C163.906 42.9039 161.428 41.1849 161.032 38.8853C160.571 36.2083 162.601 33.6246 162.36 30.9188C162.148 28.5351 160.27 26.7005 158.673 24.9181C157.076 23.1358 155.576 20.7706 156.311 18.493L156.088 18.3388Z" fill="#2F2E41"/>
<path d="M203.69 99.7887C200.536 101.583 198.905 104.664 200.047 106.671C201.189 108.678 204.671 108.85 207.826 107.055C209.096 106.356 210.18 105.362 210.987 104.157L224.255 96.3878L220.476 90.2395L207.798 98.5517C206.349 98.6301 204.941 99.0542 203.69 99.7887Z" fill="#FFB6B6"/>
<path d="M248.611 42.8133C248.215 42.6562 244.736 41.3388 241.56 43.0782C237.911 45.0763 237.348 49.6374 237.15 51.2372C236.694 54.9328 238.039 55.7611 238.323 59.5024C238.854 66.5019 240.254 58.5168 238.018 61.7118C237.243 62.8177 229.335 79.9557 224.974 83.3126C216.492 89.8413 211.105 94.4391 211.105 94.4391L217.255 101.119C217.255 101.119 226.971 98.5298 235.56 92.9532C244.369 87.233 248.774 84.3728 252.182 78.7776C252.475 78.2958 259.497 66.3713 255.726 53.1857C254.866 50.1781 253.29 44.6675 248.611 42.8133Z" fill="#ACB6E5"/>
<path d="M280.364 76.1127L279.814 101.766C279.761 104.249 277.733 106.234 275.249 106.234H228.059C225.634 106.234 223.632 104.339 223.499 101.917L222.097 76.2642C221.954 73.6482 224.036 71.4485 226.656 71.4485H275.798C278.359 71.4485 280.419 73.5531 280.364 76.1127Z" fill="#3F3D56"/>
</g>
<defs>
<clipPath id="clip0_175_355">
<rect width="297.267" height="151.947" fill="white"/>
</clipPath>
</defs>
</svg>
