<svg width="71" height="16" viewBox="0 0 71 16" fill="none" xmlns="http://www.w3.org/2000/svg">
<g clip-path="url(#clip0_19_105)">
<path fill-rule="evenodd" clip-rule="evenodd" d="M67.9101 1.19257L70.8805 1.20884C70.8805 1.20884 65.358 8.65215 64.9071 9.25877C64.7606 9.45519 64.5382 9.66705 64.4253 9.92967C64.1401 10.5898 63.8472 12.0379 63.8472 12.0379L61.1294 12.0515C61.1294 12.0515 61.5523 10.5419 61.5348 9.73794C61.5196 9.0356 61.159 8.33408 60.9569 7.62967C60.7525 6.91657 60.475 5.52126 60.475 5.52126H63.2692L63.6546 7.05464L67.9101 1.19257Z" fill="#1A1918"/>
<path fill-rule="evenodd" clip-rule="evenodd" d="M62.2854 2.76235C62.8336 3.09104 63.17 4.90428 63.17 4.90428C63.17 4.90428 60.3017 4.94635 58.7408 4.94635H57.392L55.754 12.0379H53.249C53.249 12.0379 54.8079 4.33118 55.176 2.93394C55.2952 2.48152 55.993 2.55918 57.1713 2.55918H59.053C60.268 2.55918 61.6882 2.40483 62.2854 2.76235ZM50.6235 6.21615C50.6235 6.21615 50.7016 5.76097 50.3587 5.2338C50.0656 4.78442 49.7951 4.67987 49.0242 4.65587C46.8478 4.58787 46.8901 6.19215 46.8901 6.19215L50.6235 6.21615ZM52.984 4.3789C53.3029 5.52332 52.695 8.21228 52.695 8.21228C52.695 8.21228 49.5203 8.15959 47.7813 8.21228C47.2406 8.2287 46.5934 8.1538 46.4324 8.40401C46.206 8.75463 46.5152 9.29435 46.7773 9.52235C47.0789 9.78483 47.6665 9.81477 47.8777 9.84139C49.2891 10.0197 52.2431 9.88745 52.2431 9.88745L51.7314 12.1412C51.7314 12.1412 47.5569 12.3495 45.469 11.8538C45.0567 11.7561 44.6702 11.5588 44.4091 11.2789C44.3378 11.2024 44.276 11.0979 44.2086 11.0077C44.1548 10.9357 43.9978 10.6992 43.9273 10.5121C43.4504 9.24815 43.9832 6.82663 44.5055 5.52897C44.5661 5.37863 44.6422 5.18787 44.7223 5.0258C44.8225 4.82373 44.9072 4.59559 44.9872 4.47477C45.041 4.39146 45.1077 4.3378 45.1636 4.25918C45.2281 4.16621 45.3031 4.07615 45.3726 3.99573C45.5653 3.77339 45.784 3.61615 46.0471 3.42084C46.917 2.77284 48.4913 2.2698 50.3827 2.46235C51.0947 2.53518 52.1701 2.78815 52.695 3.51656C52.8356 3.71104 52.9051 4.09711 52.984 4.3789ZM41.4946 2.55035L43.9236 2.53615C43.9236 2.53615 42.5699 8.92332 41.88 12.0379H39.0857C37.133 12.0379 35.3939 12.2785 34.6539 10.8879C33.9362 9.53766 34.6212 7.31725 34.9429 5.8087C35.1703 4.74111 35.6493 2.55904 35.6493 2.55904L38.1659 2.53615C38.1659 2.53615 37.4548 5.93339 37.1589 7.62966C37.053 8.23725 36.8344 8.80939 37.0627 9.25863C37.2794 9.68621 37.583 9.71684 38.5078 9.73794C38.8008 9.74483 39.7604 9.73794 39.7604 9.73794L41.4946 2.55035ZM30.1256 7.15035C30.3799 6.25159 30.7509 5.27697 30.7037 4.46704C30.6527 3.60084 29.9224 2.81215 29.4512 2.64635C28.0321 2.14801 26.7035 2.8447 26.1754 3.41297C25.4923 4.14897 25.261 5.0087 25.0192 6.19228C24.8392 7.0709 24.6916 7.99849 25.0192 8.68373C25.5991 9.89518 27.4076 9.63063 29.3549 9.64221C29.6439 8.87173 29.8828 8.00635 30.1256 7.15035ZM33.4978 3.6047C33.7752 5.61132 32.7107 7.82621 31.9774 9.75228C32.7251 9.81946 33.3804 9.74194 33.4275 9.79739C33.4766 9.86925 32.9264 12.0964 32.7346 12.1022C32.1412 12.1175 30.1748 12.1338 29.3549 12.1338C26.6792 12.1338 24.1762 12.3072 22.8997 10.9839C22.3813 10.4462 22.0229 9.52415 21.9361 8.87546C21.7916 7.79256 21.9727 6.60028 22.2252 5.61725C22.4536 4.72966 22.7463 3.89215 23.1887 3.12539C24.313 1.17339 26.2689 -0.275579 29.5475 0.058904C30.1834 0.124007 31.0967 0.400973 31.6672 0.729663C31.7066 0.752697 31.8446 0.861938 31.8762 0.881111C32.6471 1.36897 33.3494 2.53325 33.4978 3.6047ZM21.6595 2.56194C21.4977 3.29504 21.3359 4.12608 21.1653 4.85049H18.4676C18.6766 4.04746 18.8366 3.24911 19.0457 2.55049C19.909 2.55049 20.7116 2.56194 21.6597 2.56194M18.3712 5.52139H20.9727C20.6325 7.39394 19.959 10.4145 19.4311 12.5171C19.1006 13.833 18.88 14.7931 17.9859 15.4879C17.9058 15.5502 17.8597 15.5206 17.7931 15.5837C17.6284 15.74 16.8662 15.9212 16.4444 15.967C15.7584 16.041 14.9828 15.9767 14.1396 15.9595C14.3603 15.1574 14.6099 14.1942 14.8065 13.4753C16.8616 13.7228 16.9136 11.7906 17.3115 9.92966C17.5417 8.85435 18.2393 5.95256 18.3712 5.52139Z" fill="#1A1918"/>
<path fill-rule="evenodd" clip-rule="evenodd" d="M12.3013 10.409L12.2455 10.5526C11.2956 12.3926 9.6123 13.5215 7.21134 13.5713C6.08893 13.5942 5.01949 13.3079 4.32086 12.9963C2.81322 12.3228 1.54507 11.0731 0.85254 9.73807C-0.140905 7.82428 -0.320069 5.16194 1.74559 3.17352C1.77748 3.17352 1.49501 3.6047 1.5269 3.6047L1.47005 3.7887C-0.0184575 8.42414 4.56756 12.3964 9.02558 11.9421C10.097 11.833 11.4632 11.2494 12.3013 10.409Z" fill="#21609B"/>
<path fill-rule="evenodd" clip-rule="evenodd" d="M9.60357 8.49212C10.7252 8.49985 11.8967 7.97847 12.5904 7.24633C11.9835 8.77874 10.2261 9.76385 7.86948 9.45047C5.89618 9.18785 4.01648 7.21281 3.8229 5.23392C3.68131 3.7935 4.18594 2.93392 5.01756 1.8913C4.72856 2.43654 4.62054 2.85723 4.59364 3.1255C4.27774 6.24109 7.09583 8.47585 9.60357 8.49212Z" fill="#21609B"/>
<path fill-rule="evenodd" clip-rule="evenodd" d="M12.4777 4.62248C12.3034 5.02027 11.2996 5.77144 10.8562 5.86523C9.10077 6.23723 7.97656 5.40923 7.38762 4.46717C7.30012 4.32634 7.13829 3.94206 7.10931 3.84427C6.88091 3.07185 6.98589 1.90358 7.66718 1.29889C7.46195 1.87406 7.432 2.54179 7.54002 2.97599C7.60547 3.23861 7.80488 3.69682 8.00443 3.9851C8.36748 4.51034 8.59767 4.63792 9.06416 4.91668C9.27425 5.0422 9.49959 5.14289 9.59694 5.17061C10.0392 5.29999 10.9727 5.64123 12.4777 4.62248Z" fill="#21609B"/>
</g>
<defs>
<clipPath id="clip0_19_105">
<rect width="71" height="16" fill="white"/>
</clipPath>
</defs>
</svg>
