<svg width="49" height="29" viewBox="0 0 49 29" fill="none" xmlns="http://www.w3.org/2000/svg">
<g clip-path="url(#clip0_19_97)">
<path d="M14.5765 19.1364L16.0657 23.3316C16.4003 24.2841 16.5398 24.9491 16.4839 25.3281C17.2983 23.4342 17.8674 21.3703 18.1912 19.1364H19.9818C19.2118 22.7731 18.1963 25.4159 16.9358 27.0645C15.9537 28.3349 14.8778 28.9701 13.7062 28.9701C13.3938 28.9701 13.0087 28.8882 12.5518 28.7255V27.8488C12.775 27.8772 13.037 27.8924 13.3382 27.8924C13.8848 27.8924 14.3253 27.7609 14.6605 27.4984C15.0618 27.1786 15.2626 26.8191 15.2626 26.4207C15.2626 26.1486 15.106 25.5903 14.7941 24.7457L12.7192 19.1364H14.5765ZM3.17954 16.5579L5.90708 23.7835H5.92393L8.66821 16.5579H10.9103C11.4013 20.1413 11.6913 23.42 11.7803 26.3918H9.88996C9.82345 23.6137 9.63922 21.0014 9.33794 18.5544H9.32148L6.44293 26.3918H5.00336L2.14222 18.5544H2.12538C1.91311 20.9044 1.7795 23.5168 1.7238 26.3918H0C0.111398 22.8952 0.390182 19.6175 0.83635 16.5579H3.17954Z" fill="#00758F"/>
<path d="M33.7352 16.412C36.6692 16.412 38.1362 18.0395 38.1362 21.2929C38.1362 23.0608 37.695 24.3962 36.8135 25.2984C36.6546 25.4633 36.479 25.6057 36.2941 25.7376L38.3704 26.629L38.3684 26.6289L37.6312 27.7342L34.9273 26.3644C34.4791 26.4797 33.986 26.5372 33.4486 26.5372C32.008 26.5372 30.9319 26.1727 30.2204 25.4446C29.4395 24.639 29.0492 23.3709 29.0492 21.6424C29.0492 19.8844 29.4896 18.5541 30.3714 17.6508C31.1746 16.8245 32.296 16.412 33.7352 16.412ZM24.7506 16.4263C25.7992 16.4263 26.7527 16.6699 27.6116 17.1555L27.1753 17.9994C26.4404 17.7282 25.7159 17.592 25.0014 17.592C24.4216 17.592 23.9748 17.7132 23.6634 17.957C23.3503 18.1986 23.1566 18.5096 23.1566 18.8886C23.1566 19.4711 23.6345 19.9763 24.517 20.403C24.8061 20.5403 25.0942 20.6791 25.3813 20.8194L25.4471 20.8516L25.4802 20.8677L25.5461 20.8999L25.579 20.916L25.6449 20.9482C26.3129 21.2752 26.9414 21.5873 26.9414 21.5873C27.8238 22.1312 28.2637 22.711 28.2637 23.666C28.2637 24.5 27.9117 25.1846 27.21 25.7203C26.5078 26.2536 25.5645 26.521 24.3831 26.521C23.2782 26.521 22.2074 26.2133 21.1702 25.6028L21.6554 24.7581C22.548 25.1466 23.3557 25.3406 24.0811 25.3406C24.7613 25.3406 25.2938 25.2087 25.679 24.9483C26.0635 24.686 26.2938 24.3201 26.2938 23.8562C26.2938 23.2723 25.826 22.7731 24.9679 22.3544C24.6992 22.2256 24.4314 22.0955 24.1644 21.9641L24.0987 21.9318C23.9779 21.8726 23.8563 21.8126 23.7371 21.7538L23.6725 21.7219C23.093 21.4357 22.592 21.1857 22.592 21.1857C21.7341 20.6409 21.304 20.0563 21.304 19.0931C21.304 18.2964 21.6248 17.6525 22.2654 17.1627C22.9076 16.6718 23.7361 16.4263 24.7506 16.4263ZM41.5843 16.5579V25.1821H45.1481V26.3918H39.7769V16.5579H41.5843ZM47.1284 25.1859V25.3903H46.7366V26.3908H46.437V25.3903H46.03V25.1859H47.1285H47.1284ZM47.8519 25.1859L48.2281 26.0072L48.5737 25.1859H48.9983V26.3908H48.716V25.4738L48.3227 26.3908H48.1191L47.7251 25.4738H47.71V26.3908H47.4429V25.1859H47.852H47.8519ZM33.5507 17.6214C31.8217 17.6214 30.9568 18.8603 30.9568 21.3365C30.9568 22.7549 31.186 23.7835 31.6435 24.4246C32.0673 25.0179 32.731 25.3139 33.6347 25.3139C35.3637 25.3139 36.2286 24.0653 36.2286 21.5694C36.2286 20.1708 35.9994 19.1511 35.5424 18.5096C35.1181 17.9177 34.4547 17.6214 33.5508 17.6214H33.5507Z" fill="#F29111"/>
<path d="M29.019 0.609338C29.5926 -0.614312 31.598 0.312358 32.3763 0.739797C32.567 0.846739 32.7858 1.07267 33.0045 1.15618C33.3457 1.16782 33.6865 1.191 34.0283 1.20338C34.6693 1.33417 35.2698 1.44103 35.7749 1.69081C38.1223 2.89111 39.6504 4.11427 41.0567 6.13463C41.3572 6.56256 41.5074 7.02565 41.7529 7.48874C42.0936 8.179 42.4764 8.90359 42.8718 9.55629C43.0489 9.86574 43.1858 10.2098 43.4317 10.4712C43.5277 10.5907 43.8004 10.6259 43.9633 10.6973C44.4139 10.8998 44.9598 11.0535 45.3836 11.2911C46.1749 11.7196 46.9401 12.2301 47.6357 12.7528C47.8949 12.9545 48.0716 13.2401 48.3186 13.4535V13.5612C48.0993 13.6196 47.8809 13.6794 47.6622 13.7274C47.1845 13.8339 46.7614 13.8098 46.298 13.9164C46.0117 13.9886 45.6561 14.0837 45.3558 14.1079L45.3836 14.1321C45.5602 14.5705 46.5161 14.9269 46.9533 15.1891C47.4843 15.5218 47.9763 15.9253 48.3723 16.3887C48.509 16.507 48.6458 16.6146 48.7819 16.7325C48.877 16.852 48.9038 17.0066 49.0001 17.1131V17.1491C48.8935 17.1165 48.8168 17.0542 48.7442 16.989L48.7008 16.9497C48.6575 16.9107 48.6137 16.8723 48.5639 16.8406C48.2626 16.662 47.9634 16.4482 47.6622 16.2821C47.1442 15.9968 46.5435 15.8312 46.0117 15.5448C45.711 15.3785 45.4243 15.1891 45.1377 14.9988C44.8779 14.8321 44.5917 14.5118 44.4285 14.2742C44.3323 14.1429 44.3191 13.9886 44.2092 13.8936C44.2288 13.735 44.3962 13.6878 44.5651 13.6491L44.604 13.6402C44.6623 13.6271 44.7193 13.614 44.7691 13.5966C45.4786 13.335 46.3245 13.2401 47.4169 13.2639C47.3757 13.0257 46.6932 12.729 46.4753 12.5864C46.0379 12.3127 45.5748 12.0271 45.1108 11.778C44.865 11.6475 44.4413 11.5523 44.1689 11.4457C43.8004 11.3149 42.9812 11.1842 42.777 10.9351C42.4301 10.5424 42.1809 10.074 41.9389 9.60083L41.8731 9.4717C41.8511 9.42867 41.8291 9.38565 41.8071 9.34266C41.5211 8.77288 41.1658 8.17884 40.8792 7.59543C40.7293 7.31083 40.6605 7.06105 40.4964 6.78808C39.5004 5.11306 38.0263 3.71068 36.239 2.72443C35.6517 2.40352 34.9968 2.10654 34.2739 1.9047C33.8642 1.79726 33.3724 1.85667 32.9359 1.77424H32.6486C32.4035 1.71425 32.1987 1.48856 32.0074 1.36957C31.5849 1.12045 31.1617 0.953183 30.6564 0.775444C30.4793 0.704149 29.9737 0.538126 29.7973 0.668834C29.688 0.692682 29.6326 0.728496 29.6057 0.823722C29.497 0.965814 29.5926 1.17987 29.6602 1.31091C29.8652 1.69065 30.1516 1.91633 30.4115 2.23724C30.6427 2.52184 30.9299 2.84275 31.0939 3.1522C31.4476 3.81737 31.6123 4.55434 31.9401 5.21942C32.0616 5.46954 32.2539 5.75414 32.4308 5.97974C32.5808 6.15881 32.8535 6.28827 32.9359 6.51495C33.1004 6.7526 32.6898 7.53676 32.5948 7.7858C32.2392 8.76025 32.3081 10.1148 32.7176 10.9594L32.7394 11.004L32.7612 11.0491C32.9107 11.3584 33.0707 11.6916 33.4682 11.7781C33.4955 11.7545 33.4682 11.7669 33.5224 11.7545C33.6186 11.1007 33.6457 10.4711 33.9052 9.95955C34.0552 9.63972 34.3547 9.41362 34.5599 9.15254C34.6968 9.22367 34.6968 9.43813 34.7783 9.58006C34.956 9.94817 35.1467 10.3518 35.3657 10.7209C35.8151 11.4813 36.3208 12.2184 36.8938 12.8835C37.0856 13.1211 37.3579 13.3826 37.6035 13.5965C37.7129 13.6794 37.8354 13.7272 37.9176 13.8338H37.9444V13.8697C37.535 13.7387 37.2754 13.3709 36.9489 13.1562C36.3341 12.7526 35.5978 12.1465 35.1741 11.5649C34.9968 11.2311 34.8052 10.9111 34.6142 10.5789V10.5548C34.5326 10.6497 34.5599 10.744 34.5191 10.8876C34.3418 11.4813 34.4783 12.1586 33.8642 12.3721C33.168 12.6222 32.6487 11.9685 32.4308 11.6715C31.7345 10.6855 31.5438 9.02208 32.0348 7.67936C32.1439 7.38213 32.1587 7.02565 32.3492 6.78833C32.308 6.57378 32.1176 6.51512 32.0074 6.38366C31.8164 6.15897 31.6529 5.89723 31.5033 5.64769C31.216 5.16026 31.0115 4.57785 30.7934 4.0551C30.6975 3.84163 30.6701 3.62733 30.5745 3.42525C30.4114 3.1168 30.1108 2.80736 29.8789 2.53447C29.5649 2.14227 28.6504 1.38212 29.019 0.609338ZM33.4952 2.93723C33.5317 2.96897 33.5757 2.99673 33.6213 3.02407L33.6762 3.0568C33.7494 3.10085 33.8203 3.14721 33.8638 3.21036C33.9327 3.29396 33.9455 3.37647 34.028 3.46023C34.028 3.74582 33.9327 3.9357 33.7402 4.05402C33.7402 4.05402 33.7271 4.06649 33.7136 4.07812C33.6045 3.88775 33.5089 3.69838 33.3991 3.50817C33.2637 3.34215 33.0724 3.21045 32.9622 3.02074H32.9357V2.99689C33.1004 2.96158 33.2637 2.93723 33.4952 2.93723Z" fill="#00758F"/>
</g>
<defs>
<clipPath id="clip0_19_97">
<rect width="49" height="29" fill="white"/>
</clipPath>
</defs>
</svg>
